# xmcd
#
# Track frame offsets:
#  150
#  18105
#  37485
#  54865
#  75960
#  101420
#  123177
#  142962
#  163055
#  180660
#  199995
#  221645
#  241730
#  261017
#  279095
#  299877
#  322970
#
# Disc length: 4517 seconds
#
# Revision: 0
# Processed by: cddbd v1.5.1PL2 Copyright (c) Steve Scherf et al.
# Submitted via: Collectorz.com_Music_Collector 6.9
#
DISCID=eb11a311
DTITLE=Dave Steel - Old Salt Blues
DYEAR=1996
DGENRE=Blues
TTITLE0=Someday
TTITLE1=Morning Train
TTITLE2=Speechless
TTITLE3=You Make It So Easy
TTITLE4=We'll Never Know
TTITLE5=Broken Hearts Rendevous
TTITLE6=Do You Remember [ Time Slips Away]
TTITLE7=Edge Of Breaking Down
TTITLE8=Slow Life
TTITLE9=Remembering You Slowly
TTITLE10=Exile
TTITLE11=Pilgrim
TTITLE12=Golden Vine
TTITLE13=Old Salt Blues
TTITLE14=Hot Day In Chinatown
TTITLE15=Stranger
TTITLE16=Real Good Time
EXTD=
EXTT0=
EXTT1=
EXTT2=
EXTT3=
EXTT4=
EXTT5=
EXTT6=
EXTT7=
EXTT8=
EXTT9=
EXTT10=
EXTT11=
EXTT12=
EXTT13=
EXTT14=
EXTT15=
EXTT16=
PLAYORDER=
